<svg xmlns="http://www.w3.org/2000/svg" width="64" height="64"><path d="M49.177 24.548c-3.69 0-7.005 1.537-9.366 4.043-1 1.061-2.735 2.32-4.612 3.426.882-3.367 3.667-7.606 5.602-9.466 2.477-2.386 3.999-5.739 3.999-9.469C44.8 5.901 39.083.076 32.001 0c-7.082.076-12.8 5.902-12.8 13.082 0 3.729 1.521 7.083 3.999 9.469 1.935 1.86 4.72 6.099 5.602 9.466-1.878-1.106-3.613-2.364-4.613-3.426a12.794 12.794 0 00-9.366-4.043c-7.149 0-12.943 5.854-12.943 13.083 0 7.227 5.793 13.084 12.943 13.084 3.69 0 7.005-1.585 9.366-4.091 1.05-1.117 2.903-2.509 4.893-3.664-.188 9.231-4.596 16.011-9.082 18.682v2.359h24.001v-2.359c-4.487-2.671-8.895-9.451-9.083-18.682 1.991 1.156 3.843 2.548 4.893 3.664 2.36 2.506 5.675 4.091 9.366 4.091 7.149 0 12.942-5.856 12.942-13.084 0-7.229-5.793-13.083-12.943-13.083z"/><script xmlns=""/></svg>